<svg xmlns="http://www.w3.org/2000/svg" width="32" height="32" fill="none"><defs><radialGradient id="a" cx=".5" cy=".4" r=".7"><stop offset="0%" stop-color="#f59e0b" stop-opacity=".3"/><stop offset="60%" stop-color="#f59e0b" stop-opacity=".1"/><stop offset="100%" stop-color="#f59e0b" stop-opacity="0"/></radialGradient><filter id="b" width="140%" height="140%" x="-20%" y="-20%"><feDropShadow dx="0" dy="1" flood-color="#f59e0b" flood-opacity=".15" stdDeviation="1"/></filter></defs><circle cx="16" cy="14" r="10" fill="url(#a)"/><g filter="url(#b)"><path fill="#f59e0b" stroke="#f59e0b" stroke-linejoin="round" stroke-width="1.5" d="M16 6c3.3 0 6 2.7 6 6 0 1.8-.8 3.4-2 4.5-.6.6-1.2 1.1-1.5 1.5v2h-5v-2c-.3-.4-.9-.9-1.5-1.5-1.2-1.1-2-2.7-2-4.5 0-3.3 2.7-6 6-6z"/><rect width="5" height="2.5" x="13.5" y="20" fill="#f59e0b" stroke="#f59e0b" stroke-width="1.5" rx=".5"/><path stroke="#f59e0b" stroke-width=".8" d="M14 20.7h4m-4 .8h4" opacity=".7"/><rect width="3" height="1" x="14.5" y="22.7" fill="#f59e0b" rx=".3"/><ellipse cx="16" cy="11" fill="#fbbf24" opacity=".6" rx="2" ry="2.5"/></g><path stroke="#f59e0b" stroke-linecap="round" stroke-width="2" d="M16 2v2m6.5.5-1.3 1.3M25 12h-2M9.5 4.5l1.3 1.3M7 12h2m13.5 7.5-1.3-1.3M9.5 19.5l1.3-1.3"/></svg>