<svg xmlns="http://www.w3.org/2000/svg" width="60" height="60" fill="none" viewBox="0 0 32 32"><g stroke="currentColor" transform="translate(16 16)"><path stroke-linejoin="round" stroke-width="1.5" d="M0-10c3.3 0 6 2.7 6 6C6-2.2 5.2-.6 4 .5c-.6.6-1.2 1.1-1.5 1.5v2h-5V2c-.3-.4-.9-.9-1.5-1.5C-5.2-.6-6-2.2-6-4c0-3.3 2.7-6 6-6z"/><rect width="5" height="2.5" x="-2.5" y="4" stroke-width="1.5" rx=".5"/><path stroke-width=".8" d="M-2 4.7h4m-4 .8h4" opacity=".7"/><rect width="3" height="1" x="-1.5" y="6.7" rx=".3"/></g><path stroke="currentColor" stroke-linecap="round" stroke-width="2" d="M16 2v2m6.5.5-1.3 1.3M25 12h-2M9.5 4.5l1.3 1.3M7 12h2m13.5 7.5-1.3-1.3M9.5 19.5l1.3-1.3"/></svg>